PathFileType	4	(X/Y/Z)	c:/Users/goper/Files/vsCode/490R/osim_files/A04/A04_Slow_06.trc
DataRate	CameraRate	NumFrames	NumMarkers	Units                	OrigDataRate	OrigDataStartFrame	OrigNumFrames
120.00	120.00	9	36	mm	120.0	1991	2275
                Frame#	Time	LPSIS			LASIS			LTH1			LTH2			LTH3			LTH4			LLFE			LMFE			LSH1			LSH2			LSH3			LSH4			LLMAL			LMMAL			LCAL			LMTP5			LTOE			LMTP1			RPSIS			RASIS			RTH1			RTH2			RTH3			RTH4			RLFE			RMFE			RSH1			RSH2			RSH3			RSH4			RLMAL			RMMAL			RCAL			RMTP1			RTOE			RMTP5		
		X1	Y1	Z1	X2	Y2	Z2	X3	Y3	Z3	X4	Y4	Z4	X5	Y5	Z5	X6	Y6	Z6	X7	Y7	Z7	X8	Y8	Z8	X9	Y9	Z9	X10	Y10	Z10	X11	Y11	Z11	X12	Y12	Z12	X13	Y13	Z13	X14	Y14	Z14	X15	Y15	Z15	X16	Y16	Z16	X17	Y17	Z17	X18	Y18	Z18	X19	Y19	Z19	X20	Y20	Z20	X21	Y21	Z21	X22	Y22	Z22	X23	Y23	Z23	X24	Y24	Z24	X25	Y25	Z25	X26	Y26	Z26	X27	Y27	Z27	X28	Y28	Z28	X29	Y29	Z29	X30	Y30	Z30	X31	Y31	Z31	X32	Y32	Z32	X33	Y33	Z33	X34	Y34	Z34	X35	Y35	Z35	X36	Y36	Z36

1991	16.58333	-3565.37378	1047.39246	384.01785	0.00000	0.00000	0.00000	-3636.38940	697.41797	479.97446	-3631.22388	652.35553	473.58200	0.00000	0.00000	0.00000	-3679.76660	642.97913	466.96320	-3611.90503	525.43121	456.06393	0.00000	0.00000	0.00000	-3558.19189	435.24240	451.95023	-3556.72754	389.24609	445.93109	0.00000	0.00000	0.00000	-3601.96289	379.53384	435.24796	-3461.45508	121.47841	384.42474	-3488.73853	124.31756	300.37875	-3397.81982	85.68867	323.65894	-3596.51099	64.90470	425.50107	-3649.95044	77.14573	368.22836	-3633.86768	62.45576	322.38977	0.00000	0.00000	0.00000	0.00000	0.00000	0.00000	0.00000	0.00000	0.00000	0.00000	0.00000	0.00000	-3978.51904	362.01773	154.88464	-3992.25537	316.78549	158.90866	0.00000	0.00000	0.00000	-3910.72852	563.77350	282.37329	0.00000	0.00000	0.00000	-3837.97656	738.31653	127.22287	0.00000	0.00000	0.00000	0.00000	0.00000	0.00000	0.00000	0.00000	0.00000	-4060.41626	144.73604	285.95657	0.00000	0.00000	0.00000	-4200.29541	139.34036	251.60139	-4208.93164	170.30989	206.65610	-4184.10791	134.43402	135.75343
1992	16.59167	-3573.71826	1045.38916	382.85992	0.00000	0.00000	0.00000	0.00000	0.00000	0.00000	-3637.68823	651.78668	473.15451	0.00000	0.00000	0.00000	-3686.00122	642.22455	466.41840	-3617.42285	524.94543	455.84616	0.00000	0.00000	0.00000	-3562.62036	435.34705	451.73911	-3561.14307	389.33475	445.82367	0.00000	0.00000	0.00000	-3605.90625	379.23996	435.09940	-3462.35327	122.58914	384.60510	-3489.90015	125.38463	300.39178	-3398.44849	86.96514	323.66693	-3596.82495	64.89257	425.61728	-3650.29956	76.78972	368.28412	-3634.14380	62.28370	322.47467	0.00000	0.00000	0.00000	0.00000	0.00000	0.00000	0.00000	0.00000	0.00000	0.00000	0.00000	0.00000	-3983.37744	362.78378	155.47237	-3996.68457	317.77313	159.37700	0.00000	0.00000	0.00000	-3917.44556	562.30750	282.83398	0.00000	0.00000	0.00000	-3846.84180	736.94800	127.35137	0.00000	0.00000	0.00000	0.00000	0.00000	0.00000	0.00000	0.00000	0.00000	-4060.76636	143.99435	287.00055	0.00000	0.00000	0.00000	-4201.00684	137.52205	254.52049	-4210.23389	168.50090	209.73466	-4185.84912	133.21365	138.18642
1993	16.60000	-3582.01953	1044.12451	381.67184	0.00000	0.00000	0.00000	0.00000	0.00000	0.00000	-3644.54810	651.29022	472.66348	0.00000	0.00000	0.00000	-3692.57178	641.49127	465.94907	-3623.23462	524.49634	455.59415	0.00000	0.00000	0.00000	-3567.29834	435.49615	451.50018	0.00000	0.00000	0.00000	0.00000	0.00000	0.00000	-3610.10645	378.98727	434.84033	-3463.23901	123.69155	384.74863	-3490.94604	126.26149	300.44046	-3399.16211	88.46600	323.68277	-3597.18066	64.86050	425.73987	-3650.70923	76.55749	368.36734	-3634.44385	62.12543	322.52365	0.00000	0.00000	0.00000	0.00000	0.00000	0.00000	0.00000	0.00000	0.00000	0.00000	0.00000	0.00000	-3988.36035	363.23688	155.81189	-4001.07690	318.43069	159.63982	0.00000	0.00000	0.00000	-3924.43506	561.33069	282.83234	0.00000	0.00000	0.00000	-3856.08618	735.71436	127.39584	0.00000	0.00000	0.00000	0.00000	0.00000	0.00000	0.00000	0.00000	0.00000	-4061.38599	143.22144	287.97003	0.00000	0.00000	0.00000	-4201.76367	135.81227	257.39572	-4211.72168	167.02786	212.74260	-4187.73828	131.99977	140.66324
1994	16.60833	-3590.60181	1042.79138	380.50452	0.00000	0.00000	0.00000	0.00000	0.00000	0.00000	-3651.40283	650.64044	471.96008	0.00000	0.00000	0.00000	-3699.29199	640.69409	465.34314	-3629.29468	523.95013	455.29797	0.00000	0.00000	0.00000	-3572.19971	435.59650	451.24857	-3566.76392	391.00549	445.55252	-3631.56543	421.49554	441.58771	-3614.94165	378.95303	434.74817	-3464.21289	124.84185	384.93781	-3492.02905	127.34299	300.43564	-3399.74927	90.15807	323.82825	-3597.54663	64.75764	425.83087	-3651.11865	76.09678	368.43271	-3634.68042	61.85195	322.60974	-3585.89209	1031.11401	274.21164	0.00000	0.00000	0.00000	0.00000	0.00000	0.00000	0.00000	0.00000	0.00000	-3994.03418	362.79053	155.96461	-4006.29395	318.21707	159.62489	0.00000	0.00000	0.00000	-3931.62891	560.61346	282.34991	0.00000	0.00000	0.00000	-3865.70117	735.10956	127.43735	0.00000	0.00000	0.00000	0.00000	0.00000	0.00000	0.00000	0.00000	0.00000	-4062.42212	141.54912	288.67261	0.00000	0.00000	0.00000	-4203.13916	132.50294	260.01538	-4214.10547	163.60976	215.59079	-4190.53467	128.97063	143.06647
1995	16.61667	-3598.93945	1041.56897	379.36032	0.00000	0.00000	0.00000	0.00000	0.00000	0.00000	-3658.77295	649.99951	471.31989	0.00000	0.00000	0.00000	-3706.17603	639.86646	464.82458	-3635.69409	523.46362	454.90805	0.00000	0.00000	0.00000	-3577.39551	435.79218	450.90021	-3572.43945	391.67596	446.23923	-3636.48145	420.88593	441.23914	-3619.57715	378.73160	434.40363	-3465.27710	126.20794	385.18137	-3492.80713	128.17685	300.38135	-3400.63110	91.97193	324.03168	-3597.95752	64.76338	425.99780	-3651.51196	75.82643	368.52094	-3634.99170	61.67390	322.68903	0.00000	0.00000	0.00000	0.00000	0.00000	0.00000	0.00000	0.00000	0.00000	0.00000	0.00000	0.00000	-4000.24219	361.48209	155.77911	-4009.72339	314.44391	159.07536	0.00000	0.00000	0.00000	-3938.91357	560.01416	281.76312	0.00000	0.00000	0.00000	-3874.83350	734.69586	127.58971	0.00000	0.00000	0.00000	0.00000	0.00000	0.00000	0.00000	0.00000	0.00000	-4064.52319	139.37015	289.22156	0.00000	0.00000	0.00000	-4205.49170	128.28029	262.15842	-4217.56348	159.28746	218.04044	-4194.26221	124.79381	145.22769
1996	16.62500	-3607.44409	1040.49475	378.22662	0.00000	0.00000	0.00000	0.00000	0.00000	0.00000	-3666.41333	649.37506	470.59216	0.00000	0.00000	0.00000	-3713.42065	639.16040	464.20715	-3642.28320	522.98865	454.41241	0.00000	0.00000	0.00000	-3582.68970	436.04694	450.48334	-3577.30469	391.99539	445.90747	-3641.91016	420.59238	440.90524	-3624.34131	378.49185	434.01620	-3466.53589	127.83267	385.33099	-3494.37305	129.78142	300.44687	-3401.16479	94.18160	324.04132	-3598.36572	64.77319	426.17862	-3651.93188	75.41562	368.64636	-3635.40210	61.61920	322.81201	0.00000	0.00000	0.00000	0.00000	0.00000	0.00000	0.00000	0.00000	0.00000	0.00000	0.00000	0.00000	-4006.59009	360.24106	155.36104	-4015.57227	313.25247	158.92471	0.00000	0.00000	0.00000	-3945.77246	559.04865	281.25583	0.00000	0.00000	0.00000	-3884.09375	734.73987	127.99062	0.00000	0.00000	0.00000	0.00000	0.00000	0.00000	0.00000	0.00000	0.00000	-4066.86035	137.36711	289.48709	0.00000	0.00000	0.00000	-4208.04590	123.78239	263.49750	-4221.14111	154.60765	219.64032	-4197.62549	120.23115	146.66292
1997	16.63333	-3616.18408	1039.61316	377.13721	0.00000	0.00000	0.00000	0.00000	0.00000	0.00000	-3674.08667	648.77289	469.76495	0.00000	0.00000	0.00000	-3720.68433	638.40955	463.60336	-3649.34766	522.53253	453.91718	0.00000	0.00000	0.00000	-3588.44824	436.39923	450.04904	-3582.55737	392.46429	445.57449	-3647.34204	420.01752	440.47595	-3629.62622	378.56274	433.56946	-3467.49414	129.88184	384.76898	-3495.94751	131.17030	300.35742	-3402.56689	96.50246	323.99731	-3598.91968	64.79853	426.38800	-3652.35303	75.02190	368.73431	-3635.76880	61.49086	322.89215	0.00000	0.00000	0.00000	0.00000	0.00000	0.00000	0.00000	0.00000	0.00000	0.00000	0.00000	0.00000	-4013.03516	359.55621	154.66354	-4021.44702	312.62155	158.59891	0.00000	0.00000	0.00000	-3952.34888	557.79218	280.77963	0.00000	0.00000	0.00000	-3892.99951	734.60901	128.26620	0.00000	0.00000	0.00000	0.00000	0.00000	0.00000	0.00000	0.00000	0.00000	-4069.05664	135.81883	289.47836	0.00000	0.00000	0.00000	-4210.18018	119.98756	264.09161	-4223.93066	150.56093	220.28334	-4199.96875	116.41283	147.18224
1998	16.64167	-3624.46021	1039.31873	375.92535	0.00000	0.00000	0.00000	0.00000	0.00000	0.00000	-3681.76733	648.32568	468.82303	0.00000	0.00000	0.00000	-3728.12891	637.70294	462.85324	-3656.45117	521.89441	453.31223	0.00000	0.00000	0.00000	-3594.30859	436.64948	449.48209	-3588.03589	392.95941	445.17654	-3653.18140	419.58301	439.96771	-3635.03418	378.56168	433.10898	-3469.46289	131.45671	385.37640	-3497.62329	132.69812	300.24930	-3403.42505	99.32500	323.88675	-3599.45752	64.79409	426.61081	-3652.80713	74.58789	368.82840	-3636.20459	61.21611	323.00403	0.00000	0.00000	0.00000	0.00000	0.00000	0.00000	0.00000	0.00000	0.00000	0.00000	0.00000	0.00000	-4019.38379	358.74802	153.80244	-4029.22314	313.62967	157.66795	0.00000	0.00000	0.00000	-3958.67578	556.48914	280.05643	0.00000	0.00000	0.00000	-3901.52612	734.33063	128.28154	0.00000	0.00000	0.00000	0.00000	0.00000	0.00000	0.00000	0.00000	0.00000	-4071.58154	134.45502	289.22815	0.00000	0.00000	0.00000	-4212.19482	116.36979	264.00983	-4226.41455	146.60852	220.14369	-4201.83838	112.78957	146.93207
1999	16.65000	-3633.01807	1038.05969	374.96893	0.00000	0.00000	0.00000	0.00000	0.00000	0.00000	-3689.81616	647.82037	467.91794	0.00000	0.00000	0.00000	-3735.98389	637.19214	462.24133	-3664.18604	521.48486	452.78079	0.00000	0.00000	0.00000	-3600.60791	437.05551	449.00800	-3593.70312	393.43192	444.78125	-3659.34082	419.15933	439.53448	-3640.65454	378.39432	432.61823	-3471.10767	133.57047	385.46432	-3499.34766	134.45918	300.15756	-3404.71802	102.37260	323.81964	-3600.11401	64.95840	426.89307	-3653.27539	74.10968	368.91217	-3636.62183	61.14154	323.11768	0.00000	0.00000	0.00000	0.00000	0.00000	0.00000	0.00000	0.00000	0.00000	0.00000	0.00000	0.00000	-4025.55493	357.81445	152.47690	-4034.82983	312.76163	156.56783	0.00000	0.00000	0.00000	-3965.27417	555.68890	278.67291	0.00000	0.00000	0.00000	-3910.18433	734.51215	128.03188	0.00000	0.00000	0.00000	0.00000	0.00000	0.00000	0.00000	0.00000	0.00000	-4074.19360	133.14618	288.64096	0.00000	0.00000	0.00000	-4214.49072	112.39888	263.25763	-4229.31543	142.13425	219.25552	-4203.79590	108.23311	146.20496
